<svg width="188" height="53" viewBox="0 0 188 53" fill="none" xmlns="http://www.w3.org/2000/svg">
<path d="M65.0869 38.5V11.9H75.7649C78.5263 11.9 80.6289 12.546 82.0729 13.838C83.5423 15.1047 84.2769 16.7387 84.2769 18.74C84.2769 20.412 83.8209 21.7547 82.9089 22.768C82.0223 23.756 80.9329 24.4273 79.6409 24.782C81.1609 25.086 82.4149 25.846 83.4029 27.062C84.3909 28.2527 84.8849 29.646 84.8849 31.242C84.8849 33.3447 84.1249 35.08 82.6049 36.448C81.0849 37.816 78.9316 38.5 76.1449 38.5H65.0869ZM69.9509 23.072H75.0429C76.4109 23.072 77.4623 22.7553 78.1969 22.122C78.9316 21.4887 79.2989 20.5893 79.2989 19.424C79.2989 18.3093 78.9316 17.4353 78.1969 16.802C77.4876 16.1433 76.4109 15.814 74.9669 15.814H69.9509V23.072ZM69.9509 34.548H75.3849C76.8289 34.548 77.9436 34.2187 78.7289 33.56C79.5396 32.876 79.9449 31.926 79.9449 30.71C79.9449 29.4687 79.5269 28.4933 78.6909 27.784C77.8549 27.0747 76.7276 26.72 75.3089 26.72H69.9509V34.548ZM97.9896 38.956C96.1656 38.956 94.5189 38.538 93.0496 37.702C91.6056 36.866 90.4529 35.7133 89.5916 34.244C88.7556 32.7493 88.3376 31.0267 88.3376 29.076C88.3376 27.1253 88.7683 25.4153 89.6296 23.946C90.4909 22.4513 91.6436 21.286 93.0876 20.45C94.5569 19.614 96.2036 19.196 98.0276 19.196C99.8263 19.196 101.448 19.614 102.892 20.45C104.361 21.286 105.514 22.4513 106.35 23.946C107.211 25.4153 107.642 27.1253 107.642 29.076C107.642 31.0267 107.211 32.7493 106.35 34.244C105.514 35.7133 104.361 36.866 102.892 37.702C101.422 38.538 99.7883 38.956 97.9896 38.956ZM97.9896 34.738C99.2563 34.738 100.358 34.2693 101.296 33.332C102.233 32.3693 102.702 30.9507 102.702 29.076C102.702 27.2013 102.233 25.7953 101.296 24.858C100.358 23.8953 99.2689 23.414 98.0276 23.414C96.7356 23.414 95.6209 23.8953 94.6836 24.858C93.7716 25.7953 93.3156 27.2013 93.3156 29.076C93.3156 30.9507 93.7716 32.3693 94.6836 33.332C95.6209 34.2693 96.7229 34.738 97.9896 34.738ZM121.035 38.956C119.211 38.956 117.564 38.538 116.095 37.702C114.651 36.866 113.498 35.7133 112.637 34.244C111.801 32.7493 111.383 31.0267 111.383 29.076C111.383 27.1253 111.813 25.4153 112.675 23.946C113.536 22.4513 114.689 21.286 116.133 20.45C117.602 19.614 119.249 19.196 121.073 19.196C122.871 19.196 124.493 19.614 125.937 20.45C127.406 21.286 128.559 22.4513 129.395 23.946C130.256 25.4153 130.687 27.1253 130.687 29.076C130.687 31.0267 130.256 32.7493 129.395 34.244C128.559 35.7133 127.406 36.866 125.937 37.702C124.467 38.538 122.833 38.956 121.035 38.956ZM121.035 34.738C122.301 34.738 123.403 34.2693 124.341 33.332C125.278 32.3693 125.747 30.9507 125.747 29.076C125.747 27.2013 125.278 25.7953 124.341 24.858C123.403 23.8953 122.314 23.414 121.073 23.414C119.781 23.414 118.666 23.8953 117.729 24.858C116.817 25.7953 116.361 27.2013 116.361 29.076C116.361 30.9507 116.817 32.3693 117.729 33.332C118.666 34.2693 119.768 34.738 121.035 34.738ZM135.035 38.5V11.14H139.899V27.29L146.587 19.652H152.363L144.649 28.24L153.617 38.5H147.537L139.899 29.038V38.5H135.035ZM159.255 16.726C158.368 16.726 157.634 16.46 157.051 15.928C156.494 15.396 156.215 14.7247 156.215 13.914C156.215 13.1033 156.494 12.4447 157.051 11.938C157.634 11.406 158.368 11.14 159.255 11.14C160.142 11.14 160.864 11.406 161.421 11.938C162.004 12.4447 162.295 13.1033 162.295 13.914C162.295 14.7247 162.004 15.396 161.421 15.928C160.864 16.46 160.142 16.726 159.255 16.726ZM156.823 38.5V19.652H161.687V38.5H156.823ZM175.808 38.956C173.984 38.956 172.337 38.538 170.868 37.702C169.424 36.866 168.271 35.7133 167.41 34.244C166.574 32.7493 166.156 31.0267 166.156 29.076C166.156 27.1253 166.587 25.4153 167.448 23.946C168.309 22.4513 169.462 21.286 170.906 20.45C172.375 19.614 174.022 19.196 175.846 19.196C177.645 19.196 179.266 19.614 180.71 20.45C182.179 21.286 183.332 22.4513 184.168 23.946C185.029 25.4153 185.46 27.1253 185.46 29.076C185.46 31.0267 185.029 32.7493 184.168 34.244C183.332 35.7133 182.179 36.866 180.71 37.702C179.241 38.538 177.607 38.956 175.808 38.956ZM175.808 34.738C177.075 34.738 178.177 34.2693 179.114 33.332C180.051 32.3693 180.52 30.9507 180.52 29.076C180.52 27.2013 180.051 25.7953 179.114 24.858C178.177 23.8953 177.087 23.414 175.846 23.414C174.554 23.414 173.439 23.8953 172.502 24.858C171.59 25.7953 171.134 27.2013 171.134 29.076C171.134 30.9507 171.59 32.3693 172.502 33.332C173.439 34.2693 174.541 34.738 175.808 34.738Z" fill="#170F49"/>
<mask id="mask0_1245_35570" style="mask-type:alpha" maskUnits="userSpaceOnUse" x="0" y="0" width="49" height="53">
<path d="M19.9473 1.41118C22.7643 -0.215184 26.2349 -0.215187 29.0519 1.41118L43.9509 10.0131C46.7678 11.6395 48.5031 14.6451 48.5031 17.8979V35.1017C48.5031 38.3545 46.7678 41.3601 43.9509 42.9865L29.0519 51.5884C26.2349 53.2148 22.7643 53.2148 19.9473 51.5884L5.04836 42.9865C2.23141 41.3601 0.496094 38.3545 0.496094 35.1017V17.8979C0.496094 14.6451 2.23141 11.6395 5.04836 10.0131L19.9473 1.41118Z" fill="#C4C4C4"/>
</mask>
<g mask="url(#mask0_1245_35570)">
<rect width="30.3817" height="30.3817" transform="matrix(0.866025 0.5 -0.866025 0.5 24.5 -1.66895)" fill="#4A3AFF"/>
<rect width="27.9554" height="27.9554" transform="matrix(0.866025 0.5 -2.20305e-08 1 0.289062 13.7417)" fill="#4CBFFF"/>
<rect width="27.9554" height="27.9554" transform="matrix(0.866025 -0.5 2.20305e-08 1 24.5 27.7231)" fill="#9328FF"/>
</g>
</svg>
